<svg width="453" height="444" viewBox="0 0 453 444" fill="none" xmlns="http://www.w3.org/2000/svg">
<mask id="path-1-outside-1_13_42" maskUnits="userSpaceOnUse" x="81.6934" y="122.895" width="239.045" height="284.524" fill="black">
<rect fill="white" x="81.6934" y="122.895" width="239.045" height="284.524"/>
<path d="M94.1739 283.887C96.2636 263.695 101.687 246.428 110.443 232.087C119.431 217.769 130.728 207.209 144.334 200.407C157.94 193.605 172.518 191.009 188.068 192.618C200.601 193.915 211.465 197.737 220.661 204.084C230.113 210.223 237.155 218.106 241.789 227.735L251.012 138.611L319.596 145.709L292.934 403.333L224.35 396.235L227.16 369.08C220.886 377.579 212.598 383.993 202.297 388.322C191.997 392.652 180.232 394.132 167.003 392.763C151.453 391.153 137.715 385.627 125.791 376.182C114.098 366.762 105.319 354.124 99.4537 338.27C93.8441 322.207 92.0841 304.079 94.1739 283.887ZM234.823 298.443C236.12 285.91 233.659 275.686 227.441 267.77C221.455 259.879 213.472 255.417 203.492 254.384C193.28 253.327 184.436 256.048 176.961 262.546C169.509 268.812 165.123 278.328 163.802 291.093C162.505 303.626 164.837 313.954 170.799 322.078C176.786 329.97 184.885 334.444 195.097 335.501C205.077 336.533 213.805 333.801 221.28 327.302C228.987 320.828 233.502 311.208 234.823 298.443Z"/>
</mask>
<path d="M94.1739 283.887C96.2636 263.695 101.687 246.428 110.443 232.087C119.431 217.769 130.728 207.209 144.334 200.407C157.94 193.605 172.518 191.009 188.068 192.618C200.601 193.915 211.465 197.737 220.661 204.084C230.113 210.223 237.155 218.106 241.789 227.735L251.012 138.611L319.596 145.709L292.934 403.333L224.35 396.235L227.16 369.08C220.886 377.579 212.598 383.993 202.297 388.322C191.997 392.652 180.232 394.132 167.003 392.763C151.453 391.153 137.715 385.627 125.791 376.182C114.098 366.762 105.319 354.124 99.4537 338.27C93.8441 322.207 92.0841 304.079 94.1739 283.887ZM234.823 298.443C236.12 285.91 233.659 275.686 227.441 267.77C221.455 259.879 213.472 255.417 203.492 254.384C193.28 253.327 184.436 256.048 176.961 262.546C169.509 268.812 165.123 278.328 163.802 291.093C162.505 303.626 164.837 313.954 170.799 322.078C176.786 329.97 184.885 334.444 195.097 335.501C205.077 336.533 213.805 333.801 221.28 327.302C228.987 320.828 233.502 311.208 234.823 298.443Z" fill="#006DA8"/>
<path d="M110.443 232.087L109.596 231.555L109.589 231.566L110.443 232.087ZM144.334 200.407L143.887 199.513L144.334 200.407ZM220.661 204.084L220.093 204.907L220.104 204.915L220.116 204.923L220.661 204.084ZM241.789 227.735L240.887 228.168L242.42 231.352L242.783 227.838L241.789 227.735ZM251.012 138.611L251.115 137.616L250.12 137.513L250.018 138.508L251.012 138.611ZM319.596 145.709L320.591 145.811L320.694 144.817L319.699 144.714L319.596 145.709ZM292.934 403.333L292.831 404.327L293.826 404.43L293.929 403.435L292.934 403.333ZM224.35 396.235L223.355 396.132L223.253 397.126L224.247 397.229L224.35 396.235ZM227.16 369.08L228.155 369.183L228.532 365.538L226.356 368.486L227.16 369.08ZM202.297 388.322L201.91 387.401L202.297 388.322ZM125.791 376.182L125.163 376.961L125.17 376.966L125.791 376.182ZM99.4537 338.27L98.5096 338.599L98.5126 338.608L98.5158 338.617L99.4537 338.27ZM227.441 267.77L226.644 268.375L226.649 268.381L226.655 268.388L227.441 267.77ZM176.961 262.546L177.604 263.311L177.61 263.306L177.617 263.301L176.961 262.546ZM170.799 322.078L169.993 322.67L169.998 322.676L170.003 322.682L170.799 322.078ZM221.28 327.302L220.637 326.537L220.63 326.542L220.624 326.548L221.28 327.302ZM94.1739 283.887L95.1685 283.99C97.2461 263.916 102.632 246.798 111.296 232.608L110.443 232.087L109.589 231.566C100.741 246.058 95.2811 263.474 93.1792 283.784L94.1739 283.887ZM110.443 232.087L111.29 232.618C120.192 218.438 131.357 208.013 144.781 201.302L144.334 200.407L143.887 199.513C130.099 206.406 118.67 217.1 109.596 231.555L110.443 232.087ZM144.334 200.407L144.781 201.302C158.212 194.587 172.599 192.022 187.965 193.613L188.068 192.618L188.171 191.623C172.437 189.995 157.668 192.623 143.887 199.513L144.334 200.407ZM188.068 192.618L187.965 193.613C200.353 194.895 211.052 198.667 220.093 204.907L220.661 204.084L221.229 203.261C211.878 196.807 200.849 192.935 188.171 191.623L188.068 192.618ZM220.661 204.084L220.116 204.923C229.423 210.968 236.338 218.714 240.887 228.168L241.789 227.735L242.69 227.301C237.972 217.499 230.802 209.478 221.206 203.245L220.661 204.084ZM241.789 227.735L242.783 227.838L252.007 138.714L251.012 138.611L250.018 138.508L240.794 227.632L241.789 227.735ZM251.012 138.611L250.909 139.605L319.493 146.703L319.596 145.709L319.699 144.714L251.115 137.616L251.012 138.611ZM319.596 145.709L318.601 145.606L291.939 403.23L292.934 403.333L293.929 403.435L320.591 145.811L319.596 145.709ZM292.934 403.333L293.037 402.338L224.453 395.24L224.35 396.235L224.247 397.229L292.831 404.327L292.934 403.333ZM224.35 396.235L225.345 396.338L228.155 369.183L227.16 369.08L226.166 368.977L223.355 396.132L224.35 396.235ZM227.16 369.08L226.356 368.486C220.194 376.832 212.054 383.137 201.91 387.401L202.297 388.322L202.685 389.244C213.141 384.849 221.577 378.326 227.965 369.674L227.16 369.08ZM202.297 388.322L201.91 387.401C191.791 391.654 180.2 393.123 167.106 391.768L167.003 392.763L166.9 393.757C180.265 395.141 192.203 393.65 202.685 389.244L202.297 388.322ZM167.003 392.763L167.106 391.768C151.739 390.178 138.183 384.721 126.412 375.398L125.791 376.182L125.17 376.966C137.248 386.532 151.166 392.129 166.9 393.757L167.003 392.763ZM125.791 376.182L126.418 375.403C114.883 366.11 106.203 353.63 100.392 337.923L99.4537 338.27L98.5158 338.617C104.436 354.619 113.313 367.414 125.163 376.961L125.791 376.182ZM99.4537 338.27L100.398 337.94C94.8451 322.04 93.0911 304.064 95.1685 283.99L94.1739 283.887L93.1792 283.784C91.0772 304.095 92.8431 322.373 98.5096 338.599L99.4537 338.27ZM234.823 298.443L235.817 298.546C237.134 285.823 234.644 275.32 228.227 267.153L227.441 267.77L226.655 268.388C232.675 276.051 235.105 285.997 233.828 298.34L234.823 298.443ZM227.441 267.77L228.238 267.166C222.082 259.051 213.846 254.45 203.595 253.389L203.492 254.384L203.389 255.379C213.098 256.383 220.828 260.707 226.644 268.375L227.441 267.77ZM203.492 254.384L203.595 253.389C193.119 252.305 183.997 255.104 176.305 261.791L176.961 262.546L177.617 263.301C184.875 256.991 193.441 254.349 203.389 255.379L203.492 254.384ZM176.961 262.546L176.317 261.781C168.61 268.262 164.146 278.052 162.807 290.99L163.802 291.093L164.797 291.196C166.1 278.604 170.408 269.363 177.604 263.311L176.961 262.546ZM163.802 291.093L162.807 290.99C161.491 303.706 163.85 314.299 169.993 322.67L170.799 322.078L171.606 321.486C165.825 313.61 163.518 303.547 164.797 291.196L163.802 291.093ZM170.799 322.078L170.003 322.682C176.163 330.803 184.518 335.411 194.994 336.495L195.097 335.501L195.2 334.506C185.252 333.476 177.408 329.136 171.596 321.474L170.799 322.078ZM195.097 335.501L194.994 336.495C205.245 337.556 214.249 334.74 221.936 328.057L221.28 327.302L220.624 326.548C213.36 332.862 204.909 335.511 195.2 334.506L195.097 335.501ZM221.28 327.302L221.923 328.068C229.88 321.384 234.477 311.495 235.817 298.546L234.823 298.443L233.828 298.34C232.526 310.921 228.095 320.272 220.637 326.537L221.28 327.302Z" fill="#006DA8" mask="url(#path-1-outside-1_13_42)"/>
<path d="M293.772 238.664C293.772 238.664 314.983 250.548 346.364 261.427C377.745 272.306 394.803 248.45 421.814 228.692L273.216 177.176L293.772 238.664Z" fill="#006DA8" stroke="#006DA8" stroke-width="3"/>
<path d="M278.301 280.619C278.301 280.619 289.754 292.222 308.382 304.002C327.01 315.782 344.61 298.261 367.955 284.997L279.747 229.214L278.301 280.619Z" fill="#006DA8" stroke="#006DA8" stroke-width="3"/>
<path d="M450.373 160.328C444.052 165.287 438.544 170.355 433.139 175.167C427.755 179.962 422.476 184.499 416.702 188.282C405.07 195.903 391.516 200.403 370.983 198.278C350.754 196.184 333.44 193.511 321.182 191.36C315.053 190.285 310.186 189.341 306.85 188.665C305.182 188.327 303.896 188.055 303.026 187.868C302.592 187.775 302.26 187.702 302.037 187.653C301.926 187.629 301.841 187.61 301.784 187.597C301.756 187.591 301.734 187.586 301.72 187.583C301.713 187.581 301.707 187.58 301.703 187.579C301.702 187.579 301.7 187.578 301.699 187.578L301.698 187.578L302.027 186.115L301.697 187.578L301.248 187.476L300.932 187.14L257.162 140.386L254.874 137.942L452.797 158.426L450.373 160.328Z" fill="#006DA8"/>
<path d="M77.4609 26.1338C83.409 36.2107 94.5941 43 107.413 43C111.929 43 116.242 42.1561 120.195 40.624C124.81 51.402 135.928 59 148.913 59C156.154 59 162.814 56.636 168.091 52.6768L168.843 78.0527L70.1855 80.9736L71.4697 124.354L144.238 122.2L145.781 174.327L73.0137 176.481L75.8721 273.039L7.30176 275.069L0 28.4277L77.4609 26.1338Z" fill="#FF9E1E"/>
<ellipse cx="101.913" cy="26.5" rx="14" ry="7.5" fill="#FF9E1E"/>
<ellipse cx="133.913" cy="34" rx="6" ry="4" fill="#FF9E1E"/>
<ellipse cx="151.913" cy="46" rx="11" ry="6" fill="#FF9E1E"/>
</svg>
