<svg width="1592" height="473" viewBox="0 0 1592 473" fill="none" xmlns="http://www.w3.org/2000/svg">
<mask id="path-1-outside-1_10_32" maskUnits="userSpaceOnUse" x="19" y="177" width="170" height="249" fill="black">
<rect fill="white" x="19" y="177" width="170" height="249"/>
<path d="M187.304 178.25V232.85H88.6043V276.25H161.404V328.4H88.6043V425H20.0043V178.25H187.304Z"/>
</mask>
<path d="M187.304 178.25V232.85H88.6043V276.25H161.404V328.4H88.6043V425H20.0043V178.25H187.304Z" fill="#FDFAF5"/>
<path d="M187.304 178.25H188.304V177.25H187.304V178.25ZM187.304 232.85V233.85H188.304V232.85H187.304ZM88.6043 232.85V231.85H87.6043V232.85H88.6043ZM88.6043 276.25H87.6043V277.25H88.6043V276.25ZM161.404 276.25H162.404V275.25H161.404V276.25ZM161.404 328.4V329.4H162.404V328.4H161.404ZM88.6043 328.4V327.4H87.6043V328.4H88.6043ZM88.6043 425V426H89.6043V425H88.6043ZM20.0043 425H19.0043V426H20.0043V425ZM20.0043 178.25V177.25H19.0043V178.25H20.0043ZM187.304 178.25H186.304V232.85H187.304H188.304V178.25H187.304ZM187.304 232.85V231.85H88.6043V232.85V233.85H187.304V232.85ZM88.6043 232.85H87.6043V276.25H88.6043H89.6043V232.85H88.6043ZM88.6043 276.25V277.25H161.404V276.25V275.25H88.6043V276.25ZM161.404 276.25H160.404V328.4H161.404H162.404V276.25H161.404ZM161.404 328.4V327.4H88.6043V328.4V329.4H161.404V328.4ZM88.6043 328.4H87.6043V425H88.6043H89.6043V328.4H88.6043ZM88.6043 425V424H20.0043V425V426H88.6043V425ZM20.0043 425H21.0043V178.25H20.0043H19.0043V425H20.0043ZM20.0043 178.25V179.25H187.304V178.25V177.25H20.0043V178.25Z" fill="#FDFAF5" mask="url(#path-1-outside-1_10_32)"/>
<mask id="path-3-outside-2_10_32" maskUnits="userSpaceOnUse" x="173" y="225" width="209" height="204" fill="black">
<rect fill="white" x="173" y="225" width="209" height="204"/>
<path d="M277.195 427.45C257.595 427.45 239.978 423.367 224.345 415.2C208.945 407.033 196.812 395.367 187.945 380.2C179.078 365.033 174.645 347.183 174.645 326.65C174.645 306.35 179.078 288.617 187.945 273.45C197.045 258.283 209.295 246.617 224.695 238.45C240.328 230.283 257.945 226.2 277.545 226.2C297.145 226.2 314.645 230.283 330.045 238.45C345.678 246.617 357.928 258.283 366.795 273.45C375.895 288.617 380.445 306.35 380.445 326.65C380.445 346.95 375.895 364.8 366.795 380.2C357.928 395.367 345.678 407.033 330.045 415.2C314.412 423.367 296.795 427.45 277.195 427.45ZM277.195 367.95C286.762 367.95 294.695 364.45 300.995 357.45C307.528 350.217 310.795 339.95 310.795 326.65C310.795 313.35 307.528 303.2 300.995 296.2C294.695 289.2 286.878 285.7 277.545 285.7C268.212 285.7 260.395 289.2 254.095 296.2C247.795 303.2 244.645 313.35 244.645 326.65C244.645 340.183 247.678 350.45 253.745 357.45C259.812 364.45 267.628 367.95 277.195 367.95Z"/>
</mask>
<path d="M277.195 427.45C257.595 427.45 239.978 423.367 224.345 415.2C208.945 407.033 196.812 395.367 187.945 380.2C179.078 365.033 174.645 347.183 174.645 326.65C174.645 306.35 179.078 288.617 187.945 273.45C197.045 258.283 209.295 246.617 224.695 238.45C240.328 230.283 257.945 226.2 277.545 226.2C297.145 226.2 314.645 230.283 330.045 238.45C345.678 246.617 357.928 258.283 366.795 273.45C375.895 288.617 380.445 306.35 380.445 326.65C380.445 346.95 375.895 364.8 366.795 380.2C357.928 395.367 345.678 407.033 330.045 415.2C314.412 423.367 296.795 427.45 277.195 427.45ZM277.195 367.95C286.762 367.95 294.695 364.45 300.995 357.45C307.528 350.217 310.795 339.95 310.795 326.65C310.795 313.35 307.528 303.2 300.995 296.2C294.695 289.2 286.878 285.7 277.545 285.7C268.212 285.7 260.395 289.2 254.095 296.2C247.795 303.2 244.645 313.35 244.645 326.65C244.645 340.183 247.678 350.45 253.745 357.45C259.812 364.45 267.628 367.95 277.195 367.95Z" fill="#FDFAF5"/>
<path d="M224.345 415.2L223.877 416.083L223.882 416.086L224.345 415.2ZM187.945 380.2L188.808 379.695H188.808L187.945 380.2ZM187.945 273.45L187.088 272.935L187.082 272.945L187.945 273.45ZM224.695 238.45L224.232 237.564L224.227 237.567L224.695 238.45ZM330.045 238.45L329.577 239.333L329.582 239.336L330.045 238.45ZM366.795 273.45L365.932 273.955L365.938 273.964L366.795 273.45ZM366.795 380.2L365.934 379.691L365.932 379.695L366.795 380.2ZM330.045 415.2L329.582 414.314L330.045 415.2ZM300.995 357.45L300.253 356.78L300.252 356.781L300.995 357.45ZM300.995 296.2L300.252 296.869L300.258 296.876L300.264 296.882L300.995 296.2ZM253.745 357.45L252.989 358.105L253.745 357.45ZM277.195 427.45V426.45C257.738 426.45 240.283 422.398 224.808 414.314L224.345 415.2L223.882 416.086C239.674 424.336 257.452 428.45 277.195 428.45V427.45ZM224.345 415.2L224.814 414.317C209.579 406.238 197.582 394.703 188.808 379.695L187.945 380.2L187.082 380.705C196.042 396.031 208.311 407.829 223.877 416.083L224.345 415.2ZM187.945 380.2L188.808 379.695C180.045 364.706 175.645 347.036 175.645 326.65H174.645H173.645C173.645 347.33 178.112 365.361 187.082 380.705L187.945 380.2ZM174.645 326.65H175.645C175.645 306.499 180.044 288.946 188.808 273.955L187.945 273.45L187.082 272.945C178.113 288.288 173.645 306.201 173.645 326.65H174.645ZM187.945 273.45L188.803 273.964C197.81 258.952 209.927 247.414 225.164 239.333L224.695 238.45L224.227 237.567C208.663 245.82 196.28 257.615 187.088 272.936L187.945 273.45ZM224.695 238.45L225.158 239.336C240.633 231.252 258.088 227.2 277.545 227.2V226.2V225.2C257.802 225.2 240.024 229.314 224.232 237.564L224.695 238.45ZM277.545 226.2V227.2C297.002 227.2 314.338 231.252 329.577 239.333L330.045 238.45L330.514 237.567C314.952 229.314 297.288 225.2 277.545 225.2V226.2ZM330.045 238.45L329.582 239.336C345.049 247.416 357.16 258.951 365.932 273.955L366.795 273.45L367.658 272.945C358.696 257.616 346.307 245.817 330.508 237.564L330.045 238.45ZM366.795 273.45L365.938 273.964C374.931 288.954 379.445 306.504 379.445 326.65H380.445H381.445C381.445 306.196 376.859 288.279 367.653 272.936L366.795 273.45ZM380.445 326.65H379.445C379.445 346.796 374.931 364.465 365.934 379.691L366.795 380.2L367.656 380.709C376.859 365.135 381.445 347.104 381.445 326.65H380.445ZM366.795 380.2L365.932 379.695C357.16 394.699 345.049 406.234 329.582 414.314L330.045 415.2L330.508 416.086C346.307 407.833 358.696 396.034 367.658 380.705L366.795 380.2ZM330.045 415.2L329.582 414.314C314.107 422.398 296.652 426.45 277.195 426.45V427.45V428.45C296.938 428.45 314.717 424.336 330.508 416.086L330.045 415.2ZM277.195 367.95V368.95C287.04 368.95 295.245 365.333 301.738 358.119L300.995 357.45L300.252 356.781C294.145 363.567 286.483 366.95 277.195 366.95V367.95ZM300.995 357.45L301.737 358.12C308.489 350.645 311.795 340.107 311.795 326.65H310.795H309.795C309.795 339.793 306.568 349.788 300.253 356.78L300.995 357.45ZM310.795 326.65H311.795C311.795 313.196 308.49 302.764 301.726 295.518L300.995 296.2L300.264 296.882C306.567 303.635 309.795 313.504 309.795 326.65H310.795ZM300.995 296.2L301.738 295.531C295.251 288.322 287.165 284.7 277.545 284.7V285.7V286.7C286.592 286.7 294.14 290.077 300.252 296.869L300.995 296.2ZM277.545 285.7V284.7C267.925 284.7 259.84 288.322 253.352 295.531L254.095 296.2L254.838 296.869C260.951 290.077 268.498 286.7 277.545 286.7V285.7ZM254.095 296.2L253.352 295.531C246.829 302.778 243.645 313.204 243.645 326.65H244.645H245.645C245.645 313.496 248.761 303.622 254.838 296.869L254.095 296.2ZM244.645 326.65H243.645C243.645 340.315 246.706 350.855 252.989 358.105L253.745 357.45L254.501 356.795C248.651 350.045 245.645 340.051 245.645 326.65H244.645ZM253.745 357.45L252.989 358.105C259.253 365.332 267.349 368.95 277.195 368.95V367.95V366.95C267.908 366.95 260.371 363.568 254.501 356.795L253.745 357.45Z" fill="#FDFAF5" mask="url(#path-3-outside-2_10_32)"/>
<path d="M366.787 150.651L291.654 52.9996" stroke="#FDFAF5" stroke-width="16" stroke-linecap="round"/>
<path d="M447.528 198.167L415.735 156.845C404.029 141.631 382.114 138.857 366.786 150.651C351.458 162.444 348.523 184.338 360.228 199.552L392.021 240.874" stroke="#FDFAF5" stroke-width="16"/>
<path d="M419.767 219.605L365.987 149.708" stroke="#FDFAF5" stroke-width="16"/>
<path d="M475 417.5C494.041 417.5 511.27 418.395 523.732 419.84C529.967 420.563 534.99 421.421 538.445 422.368C540.177 422.843 541.486 423.332 542.352 423.822C542.785 424.068 543.083 424.301 543.268 424.512C543.45 424.72 543.5 424.88 543.5 425C543.5 425.12 543.45 425.28 543.268 425.488C543.083 425.699 542.785 425.932 542.352 426.178C541.486 426.668 540.177 427.157 538.445 427.632C534.99 428.579 529.967 429.437 523.732 430.16C511.27 431.605 494.041 432.5 475 432.5C455.959 432.5 438.73 431.605 426.268 430.16C420.033 429.437 415.01 428.579 411.555 427.632C409.823 427.157 408.514 426.668 407.648 426.178C407.215 425.932 406.917 425.699 406.732 425.488C406.55 425.28 406.5 425.12 406.5 425C406.5 424.88 406.55 424.72 406.732 424.512C406.917 424.301 407.215 424.068 407.648 423.822C408.514 423.332 409.823 422.843 411.555 422.368C415.01 421.421 420.033 420.563 426.268 419.84C438.73 418.395 455.959 417.5 475 417.5Z" fill="#FDFAF5" stroke="#FDFAF5"/>
<mask id="path-9-outside-3_10_32" maskUnits="userSpaceOnUse" x="370" y="185" width="209" height="204" fill="black">
<rect fill="white" x="370" y="185" width="209" height="204"/>
<path d="M474.195 387.45C454.595 387.45 436.978 383.367 421.345 375.2C405.945 367.033 393.812 355.367 384.945 340.2C376.078 325.033 371.645 307.183 371.645 286.65C371.645 266.35 376.078 248.617 384.945 233.45C394.045 218.283 406.295 206.617 421.695 198.45C437.328 190.283 454.945 186.2 474.545 186.2C494.145 186.2 511.645 190.283 527.045 198.45C542.678 206.617 554.928 218.283 563.795 233.45C572.895 248.617 577.445 266.35 577.445 286.65C577.445 306.95 572.895 324.8 563.795 340.2C554.928 355.367 542.678 367.033 527.045 375.2C511.412 383.367 493.795 387.45 474.195 387.45ZM474.195 327.95C483.762 327.95 491.695 324.45 497.995 317.45C504.528 310.217 507.795 299.95 507.795 286.65C507.795 273.35 504.528 263.2 497.995 256.2C491.695 249.2 483.878 245.7 474.545 245.7C465.212 245.7 457.395 249.2 451.095 256.2C444.795 263.2 441.645 273.35 441.645 286.65C441.645 300.183 444.678 310.45 450.745 317.45C456.812 324.45 464.628 327.95 474.195 327.95Z"/>
</mask>
<path d="M474.195 387.45C454.595 387.45 436.978 383.367 421.345 375.2C405.945 367.033 393.812 355.367 384.945 340.2C376.078 325.033 371.645 307.183 371.645 286.65C371.645 266.35 376.078 248.617 384.945 233.45C394.045 218.283 406.295 206.617 421.695 198.45C437.328 190.283 454.945 186.2 474.545 186.2C494.145 186.2 511.645 190.283 527.045 198.45C542.678 206.617 554.928 218.283 563.795 233.45C572.895 248.617 577.445 266.35 577.445 286.65C577.445 306.95 572.895 324.8 563.795 340.2C554.928 355.367 542.678 367.033 527.045 375.2C511.412 383.367 493.795 387.45 474.195 387.45ZM474.195 327.95C483.762 327.95 491.695 324.45 497.995 317.45C504.528 310.217 507.795 299.95 507.795 286.65C507.795 273.35 504.528 263.2 497.995 256.2C491.695 249.2 483.878 245.7 474.545 245.7C465.212 245.7 457.395 249.2 451.095 256.2C444.795 263.2 441.645 273.35 441.645 286.65C441.645 300.183 444.678 310.45 450.745 317.45C456.812 324.45 464.628 327.95 474.195 327.95Z" fill="#FDFAF5"/>
<path d="M421.345 375.2L420.877 376.083L420.882 376.086L421.345 375.2ZM384.945 340.2L385.808 339.695H385.808L384.945 340.2ZM384.945 233.45L384.088 232.935L384.082 232.945L384.945 233.45ZM421.695 198.45L421.232 197.564L421.227 197.567L421.695 198.45ZM527.045 198.45L526.577 199.333L526.582 199.336L527.045 198.45ZM563.795 233.45L562.932 233.955L562.938 233.964L563.795 233.45ZM563.795 340.2L562.934 339.691L562.932 339.695L563.795 340.2ZM527.045 375.2L526.582 374.314L527.045 375.2ZM497.995 317.45L497.253 316.78L497.252 316.781L497.995 317.45ZM497.995 256.2L497.252 256.869L497.258 256.876L497.264 256.882L497.995 256.2ZM450.745 317.45L449.989 318.105L450.745 317.45ZM474.195 387.45V386.45C454.738 386.45 437.283 382.398 421.808 374.314L421.345 375.2L420.882 376.086C436.674 384.336 454.452 388.45 474.195 388.45V387.45ZM421.345 375.2L421.814 374.317C406.579 366.238 394.582 354.703 385.808 339.695L384.945 340.2L384.082 340.705C393.042 356.031 405.311 367.829 420.877 376.083L421.345 375.2ZM384.945 340.2L385.808 339.695C377.045 324.706 372.645 307.036 372.645 286.65H371.645H370.645C370.645 307.33 375.112 325.361 384.082 340.705L384.945 340.2ZM371.645 286.65H372.645C372.645 266.499 377.044 248.946 385.808 233.955L384.945 233.45L384.082 232.945C375.113 248.288 370.645 266.201 370.645 286.65H371.645ZM384.945 233.45L385.803 233.964C394.81 218.952 406.927 207.414 422.164 199.333L421.695 198.45L421.227 197.567C405.663 205.82 393.28 217.615 384.088 232.936L384.945 233.45ZM421.695 198.45L422.158 199.336C437.633 191.252 455.088 187.2 474.545 187.2V186.2V185.2C454.802 185.2 437.024 189.314 421.232 197.564L421.695 198.45ZM474.545 186.2V187.2C494.002 187.2 511.338 191.252 526.577 199.333L527.045 198.45L527.514 197.567C511.952 189.314 494.288 185.2 474.545 185.2V186.2ZM527.045 198.45L526.582 199.336C542.049 207.416 554.16 218.951 562.932 233.955L563.795 233.45L564.658 232.945C555.696 217.616 543.307 205.817 527.508 197.564L527.045 198.45ZM563.795 233.45L562.938 233.964C571.931 248.954 576.445 266.504 576.445 286.65H577.445H578.445C578.445 266.196 573.859 248.279 564.653 232.936L563.795 233.45ZM577.445 286.65H576.445C576.445 306.796 571.931 324.465 562.934 339.691L563.795 340.2L564.656 340.709C573.859 325.135 578.445 307.104 578.445 286.65H577.445ZM563.795 340.2L562.932 339.695C554.16 354.699 542.049 366.234 526.582 374.314L527.045 375.2L527.508 376.086C543.307 367.833 555.696 356.034 564.658 340.705L563.795 340.2ZM527.045 375.2L526.582 374.314C511.107 382.398 493.652 386.45 474.195 386.45V387.45V388.45C493.938 388.45 511.717 384.336 527.508 376.086L527.045 375.2ZM474.195 327.95V328.95C484.04 328.95 492.245 325.333 498.738 318.119L497.995 317.45L497.252 316.781C491.145 323.567 483.483 326.95 474.195 326.95V327.95ZM497.995 317.45L498.737 318.12C505.489 310.645 508.795 300.107 508.795 286.65H507.795H506.795C506.795 299.793 503.568 309.788 497.253 316.78L497.995 317.45ZM507.795 286.65H508.795C508.795 273.196 505.49 262.764 498.726 255.518L497.995 256.2L497.264 256.882C503.567 263.635 506.795 273.504 506.795 286.65H507.795ZM497.995 256.2L498.738 255.531C492.251 248.322 484.165 244.7 474.545 244.7V245.7V246.7C483.592 246.7 491.14 250.077 497.252 256.869L497.995 256.2ZM474.545 245.7V244.7C464.925 244.7 456.84 248.322 450.352 255.531L451.095 256.2L451.838 256.869C457.951 250.077 465.498 246.7 474.545 246.7V245.7ZM451.095 256.2L450.352 255.531C443.829 262.778 440.645 273.204 440.645 286.65H441.645H442.645C442.645 273.496 445.761 263.622 451.838 256.869L451.095 256.2ZM441.645 286.65H440.645C440.645 300.315 443.706 310.855 449.989 318.105L450.745 317.45L451.501 316.795C445.651 310.045 442.645 300.051 442.645 286.65H441.645ZM450.745 317.45L449.989 318.105C456.253 325.332 464.349 328.95 474.195 328.95V327.95V326.95C464.908 326.95 457.371 323.568 451.501 316.795L450.745 317.45Z" fill="#FDFAF5" mask="url(#path-9-outside-3_10_32)"/>
<mask id="path-11-outside-4_10_32" maskUnits="userSpaceOnUse" x="559" y="165" width="213" height="264" fill="black">
<rect fill="white" x="559" y="165" width="213" height="264"/>
<path d="M560.955 326.65C560.955 306.35 564.571 288.617 571.805 273.45C579.271 258.283 589.421 246.617 602.255 238.45C615.088 230.283 629.321 226.2 644.955 226.2C657.555 226.2 668.755 228.883 678.555 234.25C688.588 239.383 696.405 246.5 702.005 255.6V166H770.955V425H702.005V397.7C696.638 406.8 689.055 414.033 679.255 419.4C669.455 424.767 657.905 427.45 644.605 427.45C628.971 427.45 614.738 423.367 601.905 415.2C589.305 407.033 579.271 395.367 571.805 380.2C564.571 364.8 560.955 346.95 560.955 326.65ZM702.355 326.65C702.355 314.05 698.855 304.133 691.855 296.9C685.088 289.667 676.688 286.05 666.655 286.05C656.388 286.05 647.871 289.667 641.105 296.9C634.338 303.9 630.955 313.817 630.955 326.65C630.955 339.25 634.338 349.283 641.105 356.75C647.871 363.983 656.388 367.6 666.655 367.6C676.688 367.6 685.088 363.983 691.855 356.75C698.855 349.517 702.355 339.483 702.355 326.65Z"/>
</mask>
<path d="M560.955 326.65C560.955 306.35 564.571 288.617 571.805 273.45C579.271 258.283 589.421 246.617 602.255 238.45C615.088 230.283 629.321 226.2 644.955 226.2C657.555 226.2 668.755 228.883 678.555 234.25C688.588 239.383 696.405 246.5 702.005 255.6V166H770.955V425H702.005V397.7C696.638 406.8 689.055 414.033 679.255 419.4C669.455 424.767 657.905 427.45 644.605 427.45C628.971 427.45 614.738 423.367 601.905 415.2C589.305 407.033 579.271 395.367 571.805 380.2C564.571 364.8 560.955 346.95 560.955 326.65ZM702.355 326.65C702.355 314.05 698.855 304.133 691.855 296.9C685.088 289.667 676.688 286.05 666.655 286.05C656.388 286.05 647.871 289.667 641.105 296.9C634.338 303.9 630.955 313.817 630.955 326.65C630.955 339.25 634.338 349.283 641.105 356.75C647.871 363.983 656.388 367.6 666.655 367.6C676.688 367.6 685.088 363.983 691.855 356.75C698.855 349.517 702.355 339.483 702.355 326.65Z" fill="#FDFAF5"/>
<path d="M571.805 273.45L570.907 273.008L570.902 273.02L571.805 273.45ZM602.255 238.45L601.718 237.606L602.255 238.45ZM678.555 234.25L678.074 235.127L678.087 235.134L678.099 235.14L678.555 234.25ZM702.005 255.6L701.153 256.124L703.005 259.133V255.6H702.005ZM702.005 166V165H701.005V166H702.005ZM770.955 166H771.955V165H770.955V166ZM770.955 425V426H771.955V425H770.955ZM702.005 425H701.005V426H702.005V425ZM702.005 397.7H703.005V394.036L701.143 397.192L702.005 397.7ZM679.255 419.4L678.774 418.523L679.255 419.4ZM601.905 415.2L601.361 416.039L601.368 416.044L601.905 415.2ZM571.805 380.2L570.9 380.625L570.903 380.633L570.908 380.642L571.805 380.2ZM691.855 296.9L691.124 297.583L691.13 297.589L691.136 297.595L691.855 296.9ZM641.105 296.9L641.824 297.595L641.829 297.589L641.835 297.583L641.105 296.9ZM641.105 356.75L640.364 357.422L640.369 357.427L640.374 357.433L641.105 356.75ZM691.855 356.75L691.136 356.055L691.13 356.061L691.124 356.067L691.855 356.75ZM560.955 326.65H561.955C561.955 306.468 565.55 288.888 572.707 273.88L571.805 273.45L570.902 273.02C563.593 288.346 559.955 306.232 559.955 326.65H560.955ZM571.805 273.45L572.702 273.892C580.097 258.871 590.13 247.351 602.792 239.294L602.255 238.45L601.718 237.606C588.713 245.882 578.446 257.696 570.908 273.008L571.805 273.45ZM602.255 238.45L602.792 239.294C615.46 231.232 629.506 227.2 644.955 227.2V226.2V225.2C629.137 225.2 614.716 229.335 601.718 237.606L602.255 238.45ZM644.955 226.2V227.2C657.409 227.2 668.44 229.851 678.074 235.127L678.555 234.25L679.035 233.373C669.07 227.916 657.701 225.2 644.955 225.2V226.2ZM678.555 234.25L678.099 235.14C687.979 240.195 695.654 247.189 701.153 256.124L702.005 255.6L702.856 255.076C697.155 245.811 689.197 238.572 679.01 233.36L678.555 234.25ZM702.005 255.6H703.005V166H702.005H701.005V255.6H702.005ZM702.005 166V167H770.955V166V165H702.005V166ZM770.955 166H769.955V425H770.955H771.955V166H770.955ZM770.955 425V424H702.005V425V426H770.955V425ZM702.005 425H703.005V397.7H702.005H701.005V425H702.005ZM702.005 397.7L701.143 397.192C695.873 406.128 688.426 413.238 678.774 418.523L679.255 419.4L679.735 420.277C689.683 414.829 697.403 407.472 702.866 398.208L702.005 397.7ZM679.255 419.4L678.774 418.523C669.147 423.795 657.769 426.45 644.605 426.45V427.45V428.45C658.041 428.45 669.762 425.738 679.735 420.277L679.255 419.4ZM644.605 427.45V426.45C629.156 426.45 615.11 422.418 602.442 414.356L601.905 415.2L601.368 416.044C614.366 424.315 628.787 428.45 644.605 428.45V427.45ZM601.905 415.2L602.449 414.361C590.018 406.304 580.099 394.784 572.702 379.758L571.805 380.2L570.908 380.642C578.444 395.949 588.591 407.762 601.361 416.039L601.905 415.2ZM571.805 380.2L572.71 379.775C565.55 364.531 561.955 346.831 561.955 326.65H560.955H559.955C559.955 347.069 563.593 365.069 570.9 380.625L571.805 380.2ZM702.355 326.65H703.355C703.355 313.859 699.796 303.669 692.573 296.205L691.855 296.9L691.136 297.595C697.913 304.598 701.355 314.241 701.355 326.65H702.355ZM691.855 296.9L692.585 296.217C685.626 288.778 676.961 285.05 666.655 285.05V286.05V287.05C676.415 287.05 684.55 290.555 691.124 297.583L691.855 296.9ZM666.655 286.05V285.05C656.123 285.05 647.338 288.773 640.374 296.217L641.105 296.9L641.835 297.583C648.405 290.56 656.653 287.05 666.655 287.05V286.05ZM641.105 296.9L640.386 296.205C633.387 303.445 629.955 313.642 629.955 326.65H630.955H631.955C631.955 313.991 635.289 304.355 641.824 297.595L641.105 296.9ZM630.955 326.65H629.955C629.955 339.434 633.391 349.728 640.364 357.422L641.105 356.75L641.846 356.078C635.285 348.839 631.955 339.066 631.955 326.65H630.955ZM641.105 356.75L640.374 357.433C647.338 364.877 656.123 368.6 666.655 368.6V367.6V366.6C656.653 366.6 648.405 363.09 641.835 356.067L641.105 356.75ZM666.655 367.6V368.6C676.961 368.6 685.626 364.872 692.585 357.433L691.855 356.75L691.124 356.067C684.55 363.095 676.415 366.6 666.655 366.6V367.6ZM691.855 356.75L692.573 357.445C699.8 349.978 703.355 339.668 703.355 326.65H702.355H701.355C701.355 339.298 697.91 349.055 691.136 356.055L691.855 356.75Z" fill="#FDFAF5" mask="url(#path-11-outside-4_10_32)"/>
<path d="M754.837 261.12C754.837 261.12 777.159 270.757 809.493 278.348C841.827 285.939 856.339 260.454 881.172 238.02L728.061 202.075L754.837 261.12Z" fill="#FDFAF5" stroke="#FDFAF5" stroke-width="3"/>
<path d="M743.767 304.444C743.767 304.444 756.354 314.807 776.096 324.607C795.837 334.407 811.54 315.167 833.395 299.57L739.914 253.164L743.767 304.444Z" fill="#FDFAF5" stroke="#FDFAF5" stroke-width="3"/>
<path d="M902.542 167.079C896.765 172.662 891.808 178.27 886.928 183.613C882.065 188.937 877.281 193.993 871.928 198.351C861.142 207.129 848.123 213 827.48 213C807.143 213 789.646 212.123 777.232 211.246C771.025 210.808 766.087 210.369 762.698 210.04C761.005 209.875 759.698 209.738 758.813 209.642C758.372 209.593 758.034 209.555 757.808 209.529C757.694 209.516 757.608 209.507 757.55 209.5C757.521 209.497 757.499 209.494 757.484 209.492C757.477 209.491 757.472 209.491 757.468 209.49C757.466 209.49 757.464 209.489 757.463 209.489H757.462L757.639 208L757.461 209.489L757.004 209.435L756.655 209.133L708.305 167.133L707 166H903.658L902.542 167.079Z" fill="#FDFAF5"/>
<path d="M978.7 283.4V425.25H909.1V283.4H978.7ZM944.25 194.5C956.246 194.5 965.942 197.913 973.285 204.779C980.859 211.643 984.65 220.295 984.65 230.7C984.65 240.875 980.857 249.41 973.286 256.271L973.285 256.271C965.941 262.905 956.245 266.2 944.25 266.2C932.024 266.2 922.097 262.906 914.521 256.276L914.515 256.271L914.509 256.266C907.173 249.403 903.5 240.87 903.5 230.7C903.5 220.301 907.17 211.65 914.509 204.785L914.515 204.779C922.091 197.913 932.019 194.5 944.25 194.5Z" fill="#FDFAF5" stroke="#FDFAF5"/>
<mask id="path-17-outside-5_10_32" maskUnits="userSpaceOnUse" x="991" y="225" width="205" height="201" fill="black">
<rect fill="white" x="991" y="225" width="205" height="201"/>
<path d="M1120.58 226.9C1143.21 226.9 1161.18 234.483 1174.48 249.65C1187.78 264.583 1194.43 284.883 1194.43 310.55V425H1125.83V319.65C1125.83 308.45 1122.91 299.7 1117.08 293.4C1111.25 286.867 1103.43 283.6 1093.63 283.6C1083.36 283.6 1075.31 286.867 1069.48 293.4C1063.65 299.7 1060.73 308.45 1060.73 319.65V425H992.129V228.65H1060.73V256.65C1066.8 247.783 1074.96 240.667 1085.23 235.3C1095.5 229.7 1107.28 226.9 1120.58 226.9Z"/>
</mask>
<path d="M1120.58 226.9C1143.21 226.9 1161.18 234.483 1174.48 249.65C1187.78 264.583 1194.43 284.883 1194.43 310.55V425H1125.83V319.65C1125.83 308.45 1122.91 299.7 1117.08 293.4C1111.25 286.867 1103.43 283.6 1093.63 283.6C1083.36 283.6 1075.31 286.867 1069.48 293.4C1063.65 299.7 1060.73 308.45 1060.73 319.65V425H992.129V228.65H1060.73V256.65C1066.8 247.783 1074.96 240.667 1085.23 235.3C1095.5 229.7 1107.28 226.9 1120.58 226.9Z" fill="#FDFAF5"/>
<path d="M1174.48 249.65L1173.73 250.309L1173.73 250.315L1174.48 249.65ZM1194.43 425V426H1195.43V425H1194.43ZM1125.83 425H1124.83V426H1125.83V425ZM1117.08 293.4L1116.33 294.066L1116.34 294.073L1116.35 294.079L1117.08 293.4ZM1069.48 293.4L1070.21 294.079L1070.22 294.073L1070.23 294.066L1069.48 293.4ZM1060.73 425V426H1061.73V425H1060.73ZM992.129 425H991.129V426H992.129V425ZM992.129 228.65V227.65H991.129V228.65H992.129ZM1060.73 228.65H1061.73V227.65H1060.73V228.65ZM1060.73 256.65H1059.73V259.882L1061.55 257.215L1060.73 256.65ZM1085.23 235.3L1085.69 236.186L1085.7 236.182L1085.71 236.178L1085.23 235.3ZM1120.58 226.9V227.9C1142.96 227.9 1160.64 235.387 1173.73 250.309L1174.48 249.65L1175.23 248.991C1161.72 233.58 1143.46 225.9 1120.58 225.9V226.9ZM1174.48 249.65L1173.73 250.315C1186.83 265.018 1193.43 285.057 1193.43 310.55H1194.43H1195.43C1195.43 284.71 1188.73 264.149 1175.23 248.985L1174.48 249.65ZM1194.43 310.55H1193.43V425H1194.43H1195.43V310.55H1194.43ZM1194.43 425V424H1125.83V425V426H1194.43V425ZM1125.83 425H1126.83V319.65H1125.83H1124.83V425H1125.83ZM1125.83 319.65H1126.83C1126.83 308.277 1123.86 299.256 1117.81 292.721L1117.08 293.4L1116.35 294.079C1121.96 300.144 1124.83 308.623 1124.83 319.65H1125.83ZM1117.08 293.4L1117.83 292.734C1111.78 285.962 1103.68 282.6 1093.63 282.6V283.6V284.6C1103.18 284.6 1110.71 287.772 1116.33 294.066L1117.08 293.4ZM1093.63 283.6V282.6C1083.13 282.6 1074.79 285.951 1068.73 292.734L1069.48 293.4L1070.23 294.066C1075.84 287.782 1083.59 284.6 1093.63 284.6V283.6ZM1069.48 293.4L1068.75 292.721C1062.69 299.256 1059.73 308.277 1059.73 319.65H1060.73H1061.73C1061.73 308.623 1064.6 300.144 1070.21 294.079L1069.48 293.4ZM1060.73 319.65H1059.73V425H1060.73H1061.73V319.65H1060.73ZM1060.73 425V424H992.129V425V426H1060.73V425ZM992.129 425H993.129V228.65H992.129H991.129V425H992.129ZM992.129 228.65V229.65H1060.73V228.65V227.65H992.129V228.65ZM1060.73 228.65H1059.73V256.65H1060.73H1061.73V228.65H1060.73ZM1060.73 256.65L1061.55 257.215C1067.52 248.494 1075.56 241.483 1085.69 236.186L1085.23 235.3L1084.77 234.414C1074.37 239.85 1066.07 247.073 1059.9 256.085L1060.73 256.65ZM1085.23 235.3L1085.71 236.178C1095.81 230.668 1107.42 227.9 1120.58 227.9V226.9V225.9C1107.14 225.9 1095.18 228.732 1084.75 234.422L1085.23 235.3Z" fill="#FDFAF5" mask="url(#path-17-outside-5_10_32)"/>
<mask id="path-19-outside-6_10_32" maskUnits="userSpaceOnUse" x="1197" y="165" width="213" height="264" fill="black">
<rect fill="white" x="1197" y="165" width="213" height="264"/>
<path d="M1198.95 326.65C1198.95 306.35 1202.57 288.617 1209.8 273.45C1217.27 258.283 1227.42 246.617 1240.25 238.45C1253.09 230.283 1267.32 226.2 1282.95 226.2C1295.55 226.2 1306.75 228.883 1316.55 234.25C1326.59 239.383 1334.4 246.5 1340 255.6V166H1408.95V425H1340V397.7C1334.64 406.8 1327.05 414.033 1317.25 419.4C1307.45 424.767 1295.9 427.45 1282.6 427.45C1266.97 427.45 1252.74 423.367 1239.9 415.2C1227.3 407.033 1217.27 395.367 1209.8 380.2C1202.57 364.8 1198.95 346.95 1198.95 326.65ZM1340.35 326.65C1340.35 314.05 1336.85 304.133 1329.85 296.9C1323.09 289.667 1314.69 286.05 1304.65 286.05C1294.39 286.05 1285.87 289.667 1279.1 296.9C1272.34 303.9 1268.95 313.817 1268.95 326.65C1268.95 339.25 1272.34 349.283 1279.1 356.75C1285.87 363.983 1294.39 367.6 1304.65 367.6C1314.69 367.6 1323.09 363.983 1329.85 356.75C1336.85 349.517 1340.35 339.483 1340.35 326.65Z"/>
</mask>
<path d="M1198.95 326.65C1198.95 306.35 1202.57 288.617 1209.8 273.45C1217.27 258.283 1227.42 246.617 1240.25 238.45C1253.09 230.283 1267.32 226.2 1282.95 226.2C1295.55 226.2 1306.75 228.883 1316.55 234.25C1326.59 239.383 1334.4 246.5 1340 255.6V166H1408.95V425H1340V397.7C1334.64 406.8 1327.05 414.033 1317.25 419.4C1307.45 424.767 1295.9 427.45 1282.6 427.45C1266.97 427.45 1252.74 423.367 1239.9 415.2C1227.3 407.033 1217.27 395.367 1209.8 380.2C1202.57 364.8 1198.95 346.95 1198.95 326.65ZM1340.35 326.65C1340.35 314.05 1336.85 304.133 1329.85 296.9C1323.09 289.667 1314.69 286.05 1304.65 286.05C1294.39 286.05 1285.87 289.667 1279.1 296.9C1272.34 303.9 1268.95 313.817 1268.95 326.65C1268.95 339.25 1272.34 349.283 1279.1 356.75C1285.87 363.983 1294.39 367.6 1304.65 367.6C1314.69 367.6 1323.09 363.983 1329.85 356.75C1336.85 349.517 1340.35 339.483 1340.35 326.65Z" fill="#FDFAF5"/>
<path d="M1209.8 273.45L1208.91 273.008L1208.9 273.02L1209.8 273.45ZM1240.25 238.45L1239.72 237.606L1240.25 238.45ZM1316.55 234.25L1316.07 235.127L1316.09 235.134L1316.1 235.14L1316.55 234.25ZM1340 255.6L1339.15 256.124L1341 259.133V255.6H1340ZM1340 166V165H1339V166H1340ZM1408.95 166H1409.95V165H1408.95V166ZM1408.95 425V426H1409.95V425H1408.95ZM1340 425H1339V426H1340V425ZM1340 397.7H1341V394.036L1339.14 397.192L1340 397.7ZM1317.25 419.4L1316.77 418.523L1317.25 419.4ZM1239.9 415.2L1239.36 416.039L1239.37 416.044L1239.9 415.2ZM1209.8 380.2L1208.9 380.625L1208.9 380.633L1208.91 380.642L1209.8 380.2ZM1329.85 296.9L1329.12 297.583L1329.13 297.589L1329.14 297.595L1329.85 296.9ZM1279.1 296.9L1279.82 297.595L1279.83 297.589L1279.83 297.583L1279.1 296.9ZM1279.1 356.75L1278.36 357.422L1278.37 357.427L1278.37 357.433L1279.1 356.75ZM1329.85 356.75L1329.14 356.055L1329.13 356.061L1329.12 356.067L1329.85 356.75ZM1198.95 326.65H1199.95C1199.95 306.468 1203.55 288.888 1210.71 273.88L1209.8 273.45L1208.9 273.02C1201.59 288.346 1197.95 306.232 1197.95 326.65H1198.95ZM1209.8 273.45L1210.7 273.892C1218.1 258.871 1228.13 247.351 1240.79 239.294L1240.25 238.45L1239.72 237.606C1226.71 245.882 1216.45 257.696 1208.91 273.008L1209.8 273.45ZM1240.25 238.45L1240.79 239.294C1253.46 231.232 1267.51 227.2 1282.95 227.2V226.2V225.2C1267.14 225.2 1252.72 229.335 1239.72 237.606L1240.25 238.45ZM1282.95 226.2V227.2C1295.41 227.2 1306.44 229.851 1316.07 235.127L1316.55 234.25L1317.04 233.373C1307.07 227.916 1295.7 225.2 1282.95 225.2V226.2ZM1316.55 234.25L1316.1 235.14C1325.98 240.195 1333.65 247.189 1339.15 256.124L1340 255.6L1340.86 255.076C1335.15 245.811 1327.2 238.572 1317.01 233.36L1316.55 234.25ZM1340 255.6H1341V166H1340H1339V255.6H1340ZM1340 166V167H1408.95V166V165H1340V166ZM1408.95 166H1407.95V425H1408.95H1409.95V166H1408.95ZM1408.95 425V424H1340V425V426H1408.95V425ZM1340 425H1341V397.7H1340H1339V425H1340ZM1340 397.7L1339.14 397.192C1333.87 406.128 1326.43 413.238 1316.77 418.523L1317.25 419.4L1317.74 420.277C1327.68 414.829 1335.4 407.472 1340.87 398.208L1340 397.7ZM1317.25 419.4L1316.77 418.523C1307.15 423.795 1295.77 426.45 1282.6 426.45V427.45V428.45C1296.04 428.45 1307.76 425.738 1317.74 420.277L1317.25 419.4ZM1282.6 427.45V426.45C1267.16 426.45 1253.11 422.418 1240.44 414.356L1239.9 415.2L1239.37 416.044C1252.37 424.315 1266.79 428.45 1282.6 428.45V427.45ZM1239.9 415.2L1240.45 414.361C1228.02 406.304 1218.1 394.784 1210.7 379.758L1209.8 380.2L1208.91 380.642C1216.44 395.949 1226.59 407.762 1239.36 416.039L1239.9 415.2ZM1209.8 380.2L1210.71 379.775C1203.55 364.531 1199.95 346.831 1199.95 326.65H1198.95H1197.95C1197.95 347.069 1201.59 365.069 1208.9 380.625L1209.8 380.2ZM1340.35 326.65H1341.35C1341.35 313.859 1337.8 303.669 1330.57 296.205L1329.85 296.9L1329.14 297.595C1335.91 304.598 1339.35 314.241 1339.35 326.65H1340.35ZM1329.85 296.9L1330.58 296.217C1323.63 288.778 1314.96 285.05 1304.65 285.05V286.05V287.05C1314.42 287.05 1322.55 290.555 1329.12 297.583L1329.85 296.9ZM1304.65 286.05V285.05C1294.12 285.05 1285.34 288.773 1278.37 296.217L1279.1 296.9L1279.83 297.583C1286.4 290.56 1294.65 287.05 1304.65 287.05V286.05ZM1279.1 296.9L1278.39 296.205C1271.39 303.445 1267.95 313.642 1267.95 326.65H1268.95H1269.95C1269.95 313.991 1273.29 304.355 1279.82 297.595L1279.1 296.9ZM1268.95 326.65H1267.95C1267.95 339.434 1271.39 349.728 1278.36 357.422L1279.1 356.75L1279.85 356.078C1273.28 348.839 1269.95 339.066 1269.95 326.65H1268.95ZM1279.1 356.75L1278.37 357.433C1285.34 364.877 1294.12 368.6 1304.65 368.6V367.6V366.6C1294.65 366.6 1286.4 363.09 1279.83 356.067L1279.1 356.75ZM1304.65 367.6V368.6C1314.96 368.6 1323.63 364.872 1330.58 357.433L1329.85 356.75L1329.12 356.067C1322.55 363.095 1314.42 366.6 1304.65 366.6V367.6ZM1329.85 356.75L1330.57 357.445C1337.8 349.978 1341.35 339.668 1341.35 326.65H1340.35H1339.35C1339.35 339.298 1335.91 349.055 1329.14 356.055L1329.85 356.75Z" fill="#FDFAF5" mask="url(#path-19-outside-6_10_32)"/>
<path d="M1472.67 230.333C1475.83 241.549 1489.78 250 1506.5 250C1514.63 250 1522.11 247.999 1528 244.656C1528 244.771 1528 244.885 1528 245C1528 259.912 1542.33 272 1560 272C1568.55 272 1576.31 269.172 1582.05 264.565C1587.06 273.448 1590.21 283.526 1591.49 294.8H1529.54C1528.37 288.5 1525.57 283.717 1521.14 280.45C1516.94 276.95 1511.22 275.2 1503.99 275.2C1498.39 275.2 1494.07 276.25 1491.04 278.35C1488.24 280.45 1486.84 283.366 1486.84 287.1C1486.84 291.766 1489.52 295.384 1494.89 297.95C1500.25 300.284 1508.89 302.733 1520.79 305.3C1535.02 308.333 1546.8 311.717 1556.14 315.45C1565.7 319.184 1573.99 325.25 1580.99 333.65C1588.22 341.817 1591.84 353.017 1591.84 367.25C1591.84 378.683 1588.45 388.95 1581.69 398.05C1575.15 407.15 1565.7 414.383 1553.34 419.75C1541.2 424.883 1526.85 427.45 1510.29 427.45C1492.55 427.45 1476.69 424.533 1462.69 418.7C1448.92 412.634 1437.95 404.467 1429.79 394.2C1421.85 383.7 1417.42 371.916 1416.49 358.85H1482.99C1483.92 365.15 1486.84 370.05 1491.74 373.55C1496.64 377.05 1502.7 378.8 1509.94 378.8C1515.54 378.8 1519.97 377.633 1523.24 375.3C1526.5 372.967 1528.14 369.933 1528.14 366.2C1528.14 361.3 1525.45 357.683 1520.09 355.35C1514.72 353.016 1505.85 350.45 1493.49 347.65C1479.49 344.85 1467.82 341.7 1458.49 338.2C1449.15 334.7 1440.99 328.983 1433.99 321.05C1427.22 313.116 1423.84 302.383 1423.84 288.85C1423.84 277.183 1426.99 266.683 1433.29 257.35C1439.59 247.783 1448.8 240.2 1460.94 234.6C1464.63 232.927 1468.54 231.506 1472.67 230.333Z" fill="#FDFAF5"/>
<path d="M1503 224.5C1507.09 224.5 1510.76 225.273 1513.4 226.503C1516.07 227.751 1517.5 229.377 1517.5 231C1517.5 232.623 1516.07 234.249 1513.4 235.497C1510.76 236.727 1507.09 237.5 1503 237.5C1498.91 237.5 1495.24 236.727 1492.6 235.497C1489.93 234.249 1488.5 232.623 1488.5 231C1488.5 229.377 1489.93 227.751 1492.6 226.503C1495.24 225.273 1498.91 224.5 1503 224.5Z" fill="#FDFAF5" stroke="#FDFAF5"/>
<path d="M1559 245.5C1563.91 245.5 1568.34 246.441 1571.51 247.941C1574.73 249.46 1576.5 251.459 1576.5 253.5C1576.5 255.541 1574.73 257.54 1571.51 259.059C1568.34 260.559 1563.91 261.5 1559 261.5C1554.09 261.5 1549.66 260.559 1546.49 259.059C1543.27 257.54 1541.5 255.541 1541.5 253.5C1541.5 251.459 1543.27 249.46 1546.49 247.941C1549.66 246.441 1554.09 245.5 1559 245.5Z" fill="#FDFAF5" stroke="#FDFAF5"/>
<path d="M1550 231.5C1551.87 231.5 1553.54 231.881 1554.73 232.473C1555.94 233.079 1556.5 233.825 1556.5 234.5C1556.5 235.175 1555.94 235.921 1554.73 236.527C1553.54 237.119 1551.87 237.5 1550 237.5C1548.13 237.5 1546.46 237.119 1545.27 236.527C1544.06 235.921 1543.5 235.175 1543.5 234.5C1543.5 233.825 1544.06 233.079 1545.27 232.473C1546.46 231.881 1548.13 231.5 1550 231.5Z" fill="#FDFAF5" stroke="#FDFAF5"/>
</svg>
